<svg width="128" height="21" viewBox="0 0 128 21" fill="none" xmlns="http://www.w3.org/2000/svg">
<path d="M76.618 7.09993L78.3972 11.7825H74.9495L76.618 7.09993ZM75.9506 5.53906L72.0581 15.7961H73.504L74.5051 13.0089H78.8424L79.8435 15.7961H81.2894L77.3969 5.53906H75.951H75.9506ZM96.9687 15.7961H98.3031V5.53906H96.9687V15.7961ZM83.2856 9.77533C83.7308 9.10626 84.62 8.549 85.51 8.549C87.2892 8.549 88.1792 9.77533 88.1792 11.5594V15.9074H86.8448V11.7821C86.8448 10.3326 86.0667 9.77576 85.0656 9.77576C83.9534 9.77576 83.1749 10.8907 83.1749 11.8939V15.7961H81.8405V8.6608H83.1749L83.286 9.77576L83.2856 9.77533ZM89.2918 13.6779C89.2918 12.1171 90.7377 11.2253 92.4058 11.2253C93.4069 11.2253 94.0743 11.4484 94.2965 11.6716V11.4484C94.2965 10.3335 93.4069 9.77576 92.5173 9.77576C91.7393 9.77576 91.0714 10.1103 90.8488 10.7794L89.629 10.2212C89.8516 9.55216 90.7412 8.54856 92.5251 8.54856C94.1936 8.54856 95.6391 9.55216 95.6391 11.5589V15.7956H94.4158V14.7873H94.3047C93.971 15.3445 93.1925 16.0136 91.9692 16.0136C90.5233 16.0136 89.3 15.1218 89.3 13.6723L89.2918 13.6779ZM94.3047 12.7805C94.3047 12.7805 93.7488 12.3342 92.6362 12.3342C91.3018 12.3342 90.7455 13.1142 90.7455 13.6719C90.7455 14.4519 91.5236 14.7868 92.1914 14.7868C93.1925 14.7868 94.3043 13.895 94.3043 12.7805" fill="#757575"/>
<path fill-rule="evenodd" clip-rule="evenodd" d="M100.19 18.9192L101.747 15.2359L98.9668 8.76969H100.301L102.414 13.675L104.527 8.76969H105.861L101.525 18.9192H100.191H100.19ZM119.763 11.1158C119.429 10.2231 118.651 9.66626 117.872 9.66626C116.76 9.66626 115.76 10.6699 115.76 12.1189C115.76 13.568 116.761 14.5716 117.872 14.5716C118.651 14.5716 119.429 14.0143 119.763 13.2339L120.875 13.903C120.319 15.1293 119.207 15.9093 117.872 15.9093C115.982 15.9093 114.425 14.2366 114.425 12.1189C114.425 9.88899 115.982 8.32812 117.872 8.32812C119.207 8.32812 120.319 9.10813 120.875 10.3345L119.763 11.1145L119.763 11.1158Z" fill="#757575"/>
<path d="M124.545 16.0178C126.324 16.0178 127.214 15.0142 127.214 13.7879C127.214 11.112 123.322 12.1152 123.322 10.5552C123.322 9.99793 123.767 9.6634 124.545 9.6634C125.323 9.6634 126.102 9.99793 126.436 10.5552L127.214 9.7752C126.768 9.21793 125.545 8.4375 124.433 8.4375C122.765 8.4375 121.876 9.4411 121.876 10.6674C121.876 13.2315 125.879 12.3401 125.879 13.6778C125.879 14.3469 125.434 14.7928 124.545 14.7928C123.656 14.7928 123.21 14.2355 122.766 13.6778L121.765 14.4578C122.432 15.1269 123.433 16.0187 124.545 16.0187V16.0178ZM111.867 15.7946H113.201V8.6598H111.867V15.7951V15.7946Z" fill="#757575"/>
<path fill-rule="evenodd" clip-rule="evenodd" d="M112.423 5.21094C112.979 5.21094 113.313 5.65727 113.313 6.10274C113.313 6.66 112.868 6.99454 112.423 6.99454C111.979 6.99454 111.534 6.5482 111.534 6.10274C111.534 5.65727 111.979 5.21094 112.423 5.21094ZM110.533 14.6879L110.756 15.6915H109.421C108.198 15.6915 107.642 14.7997 107.642 13.4616V10.0053H106.308V8.66764H107.642V6.5495H108.976V8.66764H110.533V10.0053H108.976V13.6887C108.976 14.6923 109.754 14.6923 110.533 14.6923L110.533 14.6879Z" fill="#757575"/>
<path d="M28.5699 9.66659V11.3393H32.4624C32.3513 12.2311 32.0172 12.9001 31.5728 13.3456C31.017 13.9029 30.1269 14.5719 28.5699 14.5719C26.2345 14.5719 24.3438 12.6765 24.3438 10.2239C24.3438 7.88256 26.2345 5.87579 28.5699 5.87579C29.9043 5.87579 30.7943 6.43306 31.4661 6.99076L32.5783 5.87579C31.5772 4.98399 30.3539 4.20312 28.5747 4.20312C25.3501 4.20312 22.5693 6.87896 22.5693 10.1121C22.5693 13.3452 25.3453 16.0206 28.5704 16.0206C30.3495 16.0206 31.6844 15.4633 32.6855 14.3479C33.7977 13.2329 34.1314 11.7839 34.1314 10.5571C34.1314 10.2226 34.1314 9.77709 34.0203 9.55349H28.5738L28.5699 9.66659ZM38.4678 8.33323C36.3549 8.33323 34.6864 9.89409 34.6864 12.124C34.6864 14.354 36.3549 15.9144 38.4678 15.9144C40.5807 15.9144 42.2492 14.2417 42.2492 12.124C42.2492 9.89409 40.5807 8.33323 38.4678 8.33323ZM38.4678 14.4649C37.3556 14.4649 36.3549 13.4613 36.3549 12.1236C36.3549 10.7859 37.356 9.78229 38.4678 9.78229C39.5796 9.78229 40.5807 10.6741 40.5807 12.1236C40.5807 13.5731 39.5796 14.4649 38.4678 14.4649ZM56.7065 9.11322C56.2613 8.66689 55.5943 8.22143 54.5936 8.22143C52.7029 8.22143 51.0348 9.89409 51.0348 12.0122C51.0348 14.1304 52.7033 15.8026 54.5936 15.8026C55.4832 15.8026 56.2621 15.3563 56.595 14.9108H56.7061V15.4681C56.7061 16.9176 55.928 17.698 54.7047 17.698C53.7036 17.698 53.0362 16.918 52.814 16.3603L51.3681 16.9176C51.8133 17.9212 52.9251 19.1475 54.7043 19.1475C56.7056 19.1475 58.3785 18.0325 58.3785 15.134V8.22229H56.8215V9.11409L56.7065 9.11322ZM54.8158 14.4649C53.7036 14.4649 52.8144 13.4613 52.8144 12.1236C52.8144 10.7859 53.704 9.78229 54.8158 9.78229C55.9276 9.78229 56.8171 10.7859 56.8171 12.1236C56.8171 13.4613 55.9276 14.4649 54.8158 14.4649ZM46.6971 8.33323C44.5842 8.33323 42.9157 9.89409 42.9157 12.124C42.9157 14.354 44.5842 15.9144 46.6971 15.9144C48.81 15.9144 50.4785 14.2417 50.4785 12.124C50.5896 9.89409 48.81 8.33323 46.6971 8.33323ZM46.6971 14.4649C45.5849 14.4649 44.5842 13.4613 44.5842 12.1236C44.5842 10.7859 45.5854 9.78229 46.6971 9.78229C47.8089 9.78229 48.81 10.6741 48.81 12.1236C48.81 13.5731 47.8089 14.4649 46.6971 14.4649ZM59.5979 4.31536H61.2664V15.9101H59.5979V4.31536ZM65.8258 14.4606C64.9362 14.4606 64.3799 14.0142 63.9351 13.3456L69.0509 11.2275L68.8283 10.7811C68.4946 9.88933 67.4939 8.32846 65.6037 8.32846C63.6023 8.32846 62.0449 9.88933 62.0449 12.1193C62.0449 14.2374 63.7134 15.9096 65.8263 15.9096C67.6054 15.9096 68.6065 14.7947 69.0509 14.237L67.7165 13.3452C67.2713 14.0142 66.7154 14.4601 65.8258 14.4601V14.4606ZM65.7147 9.77796C66.3822 9.77796 66.938 10.1125 67.1606 10.6698L63.713 12.1193C63.713 10.4466 64.8252 9.77796 65.7143 9.77796H65.7147Z" fill="#757575"/>
<path d="M12.5967 2.41084V17.5647C12.5967 19.2603 13.7648 20.2051 15.0015 20.2051C16.1467 20.2051 17.4064 19.4015 17.4064 17.5647V2.52564C17.4064 0.971222 16.2612 0 15.0015 0C13.7419 0 12.5967 1.0711 12.5967 2.41084Z" fill="#F9AB00"/>
<path d="M6.29834 10.1061V17.5683C6.29834 19.2639 7.46642 20.2087 8.7032 20.2087C9.84837 20.2087 11.1081 19.4051 11.1081 17.5683V10.2209C11.1081 8.66653 9.96289 7.69531 8.7032 7.69531C7.44351 7.69531 6.29834 8.76641 6.29834 10.1061Z" fill="#E37400"/>
<path d="M2.40486 20.2123C3.73303 20.2123 4.80972 19.1329 4.80972 17.8015C4.80972 16.47 3.73303 15.3906 2.40486 15.3906C1.07669 15.3906 0 16.47 0 17.8015C0 19.1329 1.07669 20.2123 2.40486 20.2123Z" fill="#E37400"/>
</svg>
