<svg width="16" height="15" viewBox="0 0 16 15" fill="none" xmlns="http://www.w3.org/2000/svg">
<path d="M7.62619 9.02144C7.62619 9.17291 7.56602 9.31818 7.45891 9.42529C7.35181 9.53239 7.20654 9.59256 7.05507 9.59256H0.571122C0.419651 9.59256 0.274384 9.53239 0.167278 9.42529C0.0601716 9.31818 0 9.17291 0 9.02144C0 8.86997 0.0601716 8.72471 0.167278 8.6176C0.274384 8.51049 0.419651 8.45032 0.571122 8.45032H7.05507C7.20654 8.45032 7.35181 8.51049 7.45891 8.6176C7.56602 8.72471 7.62619 8.86997 7.62619 9.02144ZM7.05507 10.7348H2.28449C2.13302 10.7348 1.98775 10.795 1.88064 10.9021C1.77354 11.0092 1.71337 11.1545 1.71337 11.3059C1.71337 11.4574 1.77354 11.6027 1.88064 11.7098C1.98775 11.8169 2.13302 11.8771 2.28449 11.8771H7.05507C7.20654 11.8771 7.35181 11.8169 7.45891 11.7098C7.56602 11.6027 7.62619 11.4574 7.62619 11.3059C7.62619 11.1545 7.56602 11.0092 7.45891 10.9021C7.35181 10.795 7.20654 10.7348 7.05507 10.7348ZM7.05507 13.0193H3.99785C3.84638 13.0193 3.70112 13.0795 3.59401 13.1866C3.4869 13.2937 3.42673 13.4389 3.42673 13.5904C3.42673 13.7419 3.4869 13.8872 3.59401 13.9943C3.70112 14.1014 3.84638 14.1615 3.99785 14.1615H7.05507C7.20654 14.1615 7.35181 14.1014 7.45891 13.9943C7.56602 13.8872 7.62619 13.7419 7.62619 13.5904C7.62619 13.4389 7.56602 13.2937 7.45891 13.1866C7.35181 13.0795 7.20654 13.0193 7.05507 13.0193ZM10.082 8.86952L12.3791 6.57533C12.4831 6.46761 12.5407 6.32335 12.5394 6.1736C12.5381 6.02385 12.478 5.88061 12.3721 5.77472C12.2662 5.66883 12.123 5.60876 11.9732 5.60746C11.8235 5.60616 11.6792 5.66373 11.5715 5.76776L9.27559 8.06025C9.22104 8.11293 9.17754 8.17595 9.1476 8.24563C9.11767 8.31531 9.10192 8.39025 9.10126 8.46608C9.1006 8.54192 9.11505 8.61712 9.14377 8.68731C9.17248 8.7575 9.21489 8.82127 9.26851 8.87489C9.32214 8.92851 9.3859 8.97092 9.45609 8.99964C9.52628 9.02836 9.60149 9.04281 9.67732 9.04215C9.75315 9.04149 9.8281 9.02573 9.89777 8.9958C9.96745 8.96587 10.0305 8.92236 10.0832 8.86781L10.082 8.86952ZM10.2494 2.20796V1.14224H10.7896C10.9411 1.14224 11.0864 1.08207 11.1935 0.974966C11.3006 0.86786 11.3608 0.722593 11.3608 0.571122C11.3608 0.419651 11.3006 0.274384 11.1935 0.167278C11.0864 0.0601717 10.9411 0 10.7896 0H8.56797C8.4165 0 8.27123 0.0601717 8.16413 0.167278C8.05702 0.274384 7.99685 0.419651 7.99685 0.571122C7.99685 0.722593 8.05702 0.86786 8.16413 0.974966C8.27123 1.08207 8.4165 1.14224 8.56797 1.14224H9.10825V2.20682C7.78486 2.32377 6.53297 2.85861 5.5336 3.734L4.78315 2.98354C4.67606 2.8763 4.53075 2.81599 4.3792 2.81588C4.22764 2.81578 4.08225 2.87588 3.97501 2.98297C3.86777 3.09006 3.80746 3.23537 3.80735 3.38692C3.80725 3.53848 3.86735 3.68387 3.97444 3.79111L4.74888 4.56498C4.277 5.1616 3.91727 5.83887 3.68716 6.56391C3.64668 6.70689 3.66353 6.86003 3.73413 6.9908C3.80473 7.12157 3.92352 7.21967 4.06528 7.26427C4.20704 7.30887 4.3606 7.29646 4.49335 7.22967C4.62611 7.16289 4.72761 7.04699 4.77629 6.90658C5.10359 5.86451 5.75548 4.95438 6.63677 4.30911C7.51805 3.66385 8.58255 3.31725 9.67481 3.31993H9.67938H9.68395C11.0479 3.32039 12.3559 3.86267 13.3201 4.82748C14.2842 5.79229 14.8256 7.1006 14.8252 8.4646C14.8247 9.8286 14.2824 11.1365 13.3176 12.1007C12.3528 13.0649 11.0445 13.6063 9.68052 13.6058C9.58114 13.6058 9.4812 13.6007 9.36583 13.595C9.21576 13.5897 9.06965 13.6437 8.95912 13.7454C8.8486 13.847 8.78255 13.9881 8.77529 14.1381C8.76971 14.2903 8.8244 14.4385 8.92749 14.5506C9.03058 14.6627 9.17374 14.7295 9.32585 14.7367C9.44407 14.7424 9.56287 14.7481 9.68052 14.7481C11.3036 14.7577 12.8674 14.1387 14.0443 13.0209C15.2211 11.903 15.9197 10.3731 15.9935 8.75164C16.0673 7.13019 15.5107 5.5431 14.4404 4.32292C13.37 3.10275 11.8689 2.34421 10.2516 2.20624L10.2494 2.20796Z" fill="white"/>
</svg>
