<svg width="17" height="15" viewBox="0 0 17 15" fill="none" xmlns="http://www.w3.org/2000/svg">
<path d="M0.554352 0C0.248183 0 0 0.251841 0 0.5625C0 0.873159 0.248183 1.125 0.554352 1.125H2.766C3.68349 3.43078 4.58721 5.74078 5.49733 8.05078L4.66003 10.0957C4.58989 10.2662 4.60962 10.4718 4.71087 10.6253C4.81213 10.7789 4.99189 10.8758 5.17395 10.875H14.4132C14.706 10.8791 14.9754 10.6097 14.9754 10.3125C14.9754 10.0153 14.706 9.7458 14.4132 9.75H6.00548L6.48477 8.58984L15.3833 7.86915C15.6162 7.85059 15.827 7.66646 15.8799 7.43556L16.9886 2.56055C17.0611 2.23219 16.7774 1.8739 16.4458 1.875H4.2558L3.65525 0.351562C3.57302 0.145346 3.36056 5.625e-06 3.14133 0H0.554352ZM4.70044 3H15.7471L14.8867 6.78516L6.46168 7.46484L4.70044 3ZM7.02179 11.25C6.00783 11.25 5.17395 12.0961 5.17395 13.125C5.17395 14.1539 6.00783 15 7.02179 15C8.03576 15 8.86963 14.1539 8.86963 13.125C8.86963 12.0961 8.03576 11.25 7.02179 11.25ZM12.5653 11.25C11.5513 11.25 10.7175 12.0961 10.7175 13.125C10.7175 14.1539 11.5513 15 12.5653 15C13.5793 15 14.4132 14.1539 14.4132 13.125C14.4132 12.0961 13.5793 11.25 12.5653 11.25ZM7.02179 12.375C7.43658 12.375 7.76093 12.7041 7.76093 13.125C7.76093 13.5459 7.43658 13.875 7.02179 13.875C6.60705 13.875 6.28266 13.5459 6.28266 13.125C6.28266 12.7041 6.60705 12.375 7.02179 12.375ZM12.5653 12.375C12.9801 12.375 13.3045 12.7041 13.3045 13.125C13.3045 13.5459 12.9801 13.875 12.5653 13.875C12.1505 13.875 11.8262 13.5459 11.8262 13.125C11.8262 12.7041 12.1505 12.375 12.5653 12.375Z" fill="#80A4DE"/>
</svg>
