<svg width="18" height="21" viewBox="0 0 18 21" fill="none" xmlns="http://www.w3.org/2000/svg">
<path d="M12.1107 17.9487C12.0209 19.6495 10.6625 21 9 21C7.3375 21 5.97915 19.6495 5.88934 17.9487H2.08035C0.931472 17.9487 0 16.9849 0 15.7949C0 14.6064 0.930691 13.641 2.07765 13.641C2.0763 13.641 2.07692 9.33306 2.07692 9.33306C2.07692 6.29878 3.90664 3.63846 6.57692 2.60572V2.51112C6.57692 1.12468 7.66331 0 9 0C10.3381 0 11.4231 1.12401 11.4231 2.51112V2.60578C14.0933 3.63866 15.9231 6.29942 15.9231 9.33306V13.6404C17.0676 13.641 18 14.6061 18 15.7949C18 16.9836 17.0678 17.9487 15.9197 17.9487H12.1107ZM10.7222 17.9487H7.27778C7.36461 18.8557 8.10254 19.5641 9 19.5641C9.89746 19.5641 10.6354 18.8557 10.7222 17.9487ZM7.46109 3.81405C5.11054 4.51713 3.46154 6.75671 3.46154 9.33306V13.6404C3.46154 14.4332 2.84119 15.0769 2.07765 15.0769C1.69547 15.0769 1.38462 15.3994 1.38462 15.7949C1.38462 16.1912 1.69548 16.5128 2.08035 16.5128H15.9197C16.3036 16.5128 16.6154 16.1901 16.6154 15.7949C16.6154 15.3997 16.3035 15.0769 15.9224 15.0769C15.1573 15.0769 14.5385 14.4355 14.5385 13.6404V9.33306C14.5385 6.75734 12.8893 4.51723 10.5389 3.81407L10.0385 3.66437V2.51112C10.0385 1.91735 9.57373 1.4359 9 1.4359C8.42748 1.4359 7.96154 1.91826 7.96154 2.51112V3.66436L7.46109 3.81405Z" fill="#80A4DE"/>
</svg>
