<svg width="23" height="12" viewBox="0 0 23 12" fill="none" xmlns="http://www.w3.org/2000/svg">
<path d="M22.0585 6.05217C21.9515 5.87478 21.8446 5.70783 21.7264 5.53565C19.4696 2.21739 15.4173 0 10.8079 0C6.59251 0 2.84984 1.85217 0.508559 4.7113C0.379114 4.87304 0.255296 5.03478 0.131478 5.20174C-0.0317362 5.42609 -0.0429922 5.71304 0.0977098 5.94783C0.204643 6.12522 0.317205 6.29739 0.429767 6.46435C2.68663 9.78261 6.73885 12 11.3426 12C15.558 12 19.3064 10.1478 21.642 7.2887C21.7715 7.12696 21.9009 6.96522 22.0191 6.79826C22.1879 6.57913 22.1992 6.28696 22.0585 6.05217ZM20.8316 6.79304C18.6704 9.40696 15.226 11.1026 11.3426 11.1026C7.10467 11.1026 3.37888 9.07304 1.28523 6.03652C1.11076 5.78087 1.12765 5.45739 1.32463 5.21739C3.48581 2.60348 6.93583 0.907826 10.8136 0.907826C15.0515 0.907826 18.7829 2.93739 20.8766 5.97391C21.0454 6.22435 21.0285 6.55304 20.8316 6.79304Z" fill="#80A4DE"/>
<path d="M10.6279 2.84314C9.09703 3.02575 7.86448 4.16836 7.67313 5.58227C7.3861 7.65878 9.28276 9.41704 11.5227 9.15095C13.0536 8.97356 14.2861 7.82574 14.4775 6.41183C14.7701 4.33531 12.8735 2.57706 10.6279 2.84314ZM10.6785 8.15965C9.69924 8.00835 8.91131 7.27792 8.74809 6.37009C8.47794 4.8727 9.86245 3.58923 11.4833 3.83445C12.4626 3.98575 13.2505 4.71618 13.4138 5.62401C13.6783 7.12661 12.2938 8.41009 10.6785 8.15965Z" fill="#80A4DE"/>
</svg>
