<svg width="22" height="19" viewBox="0 0 22 19" fill="none" xmlns="http://www.w3.org/2000/svg">
<path d="M15.8125 0C13.9219 0 12.1687 0.848215 11 2.27321C9.83125 0.848215 8.07812 0 6.1875 0C2.78438 0 0 2.74821 0 6.10714C0 12.5196 10.2094 18.6607 10.6562 18.8982C10.7594 18.9661 10.8969 19 11 19C11.1031 19 11.2406 18.9661 11.3438 18.8982C11.7906 18.6607 22 12.5196 22 6.10714C22 2.74821 19.2156 0 15.8125 0ZM11 17.5071C9.2125 16.3875 1.375 11.1286 1.375 6.10714C1.375 3.49464 3.54063 1.35714 6.1875 1.35714C7.94063 1.35714 9.55625 2.30714 10.4156 3.8C10.6562 4.24107 11.3781 4.24107 11.6187 3.8C12.4437 2.30714 14.0594 1.35714 15.8125 1.35714C18.4594 1.35714 20.625 3.49464 20.625 6.10714C20.625 11.1286 12.7875 16.3875 11 17.5071Z" fill="#80A4DE"/>
</svg>
