<svg width="16" height="20" viewBox="0 0 16 20" fill="none" xmlns="http://www.w3.org/2000/svg">
<path d="M7.85965 2C6.23328 2 4.91228 3.34458 4.91228 5C4.91228 6.65542 6.23328 8 7.85965 8C9.48602 8 10.807 6.65542 10.807 5C10.807 3.34458 9.48602 2 7.85965 2ZM7.85965 0C10.5712 0 12.7719 2.24002 12.7719 5C12.7719 7.75998 10.5712 10 7.85965 10C5.14809 10 2.94737 7.75998 2.94737 5C2.94737 2.24002 5.14809 0 7.85965 0ZM15.7193 19C15.7193 19.5523 15.2794 20 14.7368 20C14.1942 20 13.7544 19.5523 13.7544 19V14C13.7544 13.4695 13.2499 13 12.5877 13H3.13158C2.46939 13 1.96491 13.4695 1.96491 14V19C1.96491 19.5523 1.52505 20 0.982456 20C0.439861 20 0 19.5523 0 19V14C0 12.3229 1.42154 11 3.13158 11H12.5877C14.2978 11 15.7193 12.3229 15.7193 14V19Z" fill="#80A4DE"/>
</svg>
