<svg width="23" height="20" viewBox="0 0 23 20" fill="none" xmlns="http://www.w3.org/2000/svg">
<path d="M0.75 0C0.335775 0 0 0.335788 0 0.75C0 1.16421 0.335775 1.5 0.75 1.5H3.7422C4.9835 4.57437 6.20618 7.65437 7.4375 10.7344L6.3047 13.4609C6.2098 13.6882 6.2365 13.9624 6.37348 14.1671C6.51048 14.3718 6.75368 14.501 7 14.5H19.5C19.8962 14.5055 20.2607 14.1463 20.2607 13.75C20.2607 13.3537 19.8962 12.9944 19.5 13H8.125L8.77345 11.4531L20.8125 10.4922C21.1276 10.4675 21.4129 10.222 21.4844 9.91408L22.9844 3.41406C23.0825 2.97625 22.6987 2.49854 22.25 2.5H5.7578L4.9453 0.46875C4.83405 0.193795 4.5466 7.5e-06 4.25 0H0.75ZM6.35938 4H21.3047L20.1406 9.04688L8.7422 9.95312L6.35938 4ZM9.5 15C8.12817 15 7 16.1282 7 17.5C7 18.8718 8.12817 20 9.5 20C10.8718 20 12 18.8718 12 17.5C12 16.1282 10.8718 15 9.5 15ZM17 15C15.6282 15 14.5 16.1282 14.5 17.5C14.5 18.8718 15.6282 20 17 20C18.3718 20 19.5 18.8718 19.5 17.5C19.5 16.1282 18.3718 15 17 15ZM9.5 16.5C10.0612 16.5 10.5 16.9388 10.5 17.5C10.5 18.0612 10.0612 18.5 9.5 18.5C8.93888 18.5 8.5 18.0611 8.5 17.5C8.5 16.9389 8.93888 16.5 9.5 16.5ZM17 16.5C17.5611 16.5 18 16.9389 18 17.5C18 18.0611 17.5611 18.5 17 18.5C16.4388 18.5 16 18.0612 16 17.5C16 16.9388 16.4388 16.5 17 16.5Z" fill="#80A4DE"/>
</svg>
