<svg width="9" height="16" viewBox="0 0 9 16" fill="none" xmlns="http://www.w3.org/2000/svg">
    <path d="M0.428185 14.208C0.232923 14.4032 0.232923 14.7198 0.428185 14.9151C0.623447 15.1103 0.940029 15.1103 1.13529 14.9151L0.428185 14.208ZM7.56308 7.78018L7.91664 8.13373L8.27019 7.78017L7.91663 7.42662L7.56308 7.78018ZM1.13529 0.645465C0.940022 0.450206 0.623439 0.45021 0.42818 0.645475C0.232921 0.84074 0.232925 1.15732 0.42819 1.35258L1.13529 0.645465ZM1.13529 14.9151L7.91664 8.13373L7.20953 7.42663L0.428185 14.208L1.13529 14.9151ZM0.42819 1.35258L7.20953 8.13374L7.91663 7.42662L1.13529 0.645465L0.42819 1.35258Z"
          fill="#80A4DE"/>
</svg>
