<svg width="28" height="15" viewBox="0 0 28 15" fill="none" xmlns="http://www.w3.org/2000/svg">
    <path d="M26.9572 14.4563C27.1524 14.6515 27.469 14.6515 27.6643 14.4563C27.8595 14.261 27.8595 13.9444 27.6643 13.7492L26.9572 14.4563ZM14.207 0.999023L14.5606 0.64547L14.207 0.291913L13.8535 0.645473L14.207 0.999023ZM0.75002 13.7492C0.55476 13.9444 0.554763 14.261 0.750027 14.4563C0.945291 14.6515 1.26187 14.6515 1.45713 14.4563L0.75002 13.7492ZM27.6643 13.7492L14.5606 0.64547L13.8535 1.35258L26.9572 14.4563L27.6643 13.7492ZM1.45713 14.4563L14.5606 1.35257L13.8535 0.645473L0.75002 13.7492L1.45713 14.4563Z"
          fill="#D6D6D6"/>
</svg>
