<svg width="13" height="8" viewBox="0 0 13 8" fill="none" xmlns="http://www.w3.org/2000/svg">
<path d="M12.3097 1.28324C12.505 1.08798 12.505 0.771396 12.3097 0.576134C12.1145 0.380872 11.7979 0.380872 11.6026 0.576134L12.3097 1.28324ZM6.47814 6.40773L6.12455 6.76125L6.4781 7.11487L6.83169 6.76128L6.47814 6.40773ZM1.35368 0.575189C1.15843 0.379909 0.841849 0.379881 0.64657 0.575126C0.45129 0.770371 0.451262 1.08695 0.646507 1.28223L1.35368 0.575189ZM11.6026 0.576134L6.12458 6.05417L6.83169 6.76128L12.3097 1.28324L11.6026 0.576134ZM0.646507 1.28223L6.12455 6.76125L6.83172 6.05421L1.35368 0.575189L0.646507 1.28223Z" fill="#80A4DE"/>
</svg>
