<svg width="38" height="38" viewBox="0 0 38 38" fill="none" xmlns="http://www.w3.org/2000/svg">
    <rect width="38" height="38" rx="8" fill="#80A4DE"/>
    <path d="M24.928 28.5199H12.0721C10.9309 28.5199 10.002 27.5907 10.002 26.4496V13.5937C10.002 12.4525 10.9309 11.5234 12.0721 11.5234H24.928C26.0709 11.5234 26.9982 12.4526 26.9982 13.5937V26.4496C26.9998 27.5924 26.0708 28.5199 24.928 28.5199ZM12.0721 12.3695C11.3972 12.3695 10.8477 12.919 10.8477 13.5938V26.4497C10.8477 27.1245 11.3972 27.6738 12.0721 27.6738H24.928C25.6028 27.6738 26.1537 27.1245 26.1537 26.4497V13.5938C26.1537 12.9189 25.6045 12.3695 24.928 12.3695H12.0721Z" fill="white"/>
    <path d="M14.9046 13.7202C14.6706 13.7202 14.4824 13.5303 14.4824 13.2979V10.4221C14.4824 10.1882 14.6723 10 14.9046 10C15.1369 10 15.3286 10.1899 15.3286 10.4221V13.2979C15.3268 13.5302 15.1369 13.7202 14.9046 13.7202Z" fill="white"/>
    <path d="M22.0313 13.7202C21.7972 13.7202 21.6074 13.5303 21.6074 13.298V10.4223C21.6074 10.1883 21.7972 10 22.0313 10C22.2653 10 22.4535 10.1899 22.4535 10.4223V13.298C22.4552 13.5302 22.2653 13.7202 22.0313 13.7202Z" fill="white"/>
    <path d="M26.5761 16.3015H10.4239C10.1899 16.3015 10 16.1115 10 15.8793C10 15.647 10.1899 15.457 10.4239 15.457H26.5761C26.8101 15.457 27 15.647 27 15.8793C27 16.1115 26.8101 16.3015 26.5761 16.3015Z" fill="white"/>
</svg>
