<svg width="15" height="13" viewBox="0 0 15 13" fill="none" xmlns="http://www.w3.org/2000/svg">
<path d="M10.7812 0C9.49219 0 8.29688 0.580357 7.5 1.55536C6.70312 0.580357 5.50781 0 4.21875 0C1.89844 0 0 1.88036 0 4.17857C0 8.56607 6.96094 12.7679 7.26562 12.9304C7.33594 12.9768 7.42969 13 7.5 13C7.57031 13 7.66406 12.9768 7.73438 12.9304C8.03906 12.7679 15 8.56607 15 4.17857C15 1.88036 13.1016 0 10.7812 0ZM7.5 11.9786C6.28125 11.2125 0.9375 7.61429 0.9375 4.17857C0.9375 2.39107 2.41406 0.928571 4.21875 0.928571C5.41406 0.928571 6.51562 1.57857 7.10156 2.6C7.26562 2.90179 7.75781 2.90179 7.92188 2.6C8.48438 1.57857 9.58594 0.928571 10.7812 0.928571C12.5859 0.928571 14.0625 2.39107 14.0625 4.17857C14.0625 7.61429 8.71875 11.2125 7.5 11.9786Z" fill="#80A4DE"/>
</svg>
