<svg width="15" height="17" viewBox="0 0 15 17" fill="none" xmlns="http://www.w3.org/2000/svg">
<path d="M0.500953 0.000501861C0.113766 0.000501861 -0.126422 0.483292 0.0700156 0.866212L5.5007 9.17753V15.4864C5.5007 15.913 5.89183 16.19 6.22433 15.9993L8.22414 14.8521C8.39345 14.7547 8.50021 14.5565 8.50021 14.3392V9.17703L13.9309 0.86571C14.1278 0.483292 13.8876 0 13.5 0L0.500953 0.000501861ZM1.37727 1.14776H12.6241L7.56964 8.72887C7.52414 8.8172 7.50008 8.91807 7.50052 9.02045V13.9849L6.50039 14.5585V9.02045C6.50039 8.91757 6.47633 8.8172 6.43127 8.72887L1.37727 1.14776Z" fill="#3567AC"/>
</svg>
