<svg width="17" height="17" viewBox="0 0 17 17" fill="none" xmlns="http://www.w3.org/2000/svg">
<path d="M10.4242 1.60539e-05C9.19791 0.00212642 7.99674 0.348159 6.95695 0.998859C5.91717 1.64956 5.0804 2.57888 4.54156 3.68141C4.00272 4.78394 3.78338 6.01554 3.90843 7.2365C4.03348 8.45746 4.4979 9.61891 5.24902 10.5891L0 15.8426L1.15642 17L6.40544 11.7465C7.23 12.3897 8.19617 12.8263 9.22348 13.0201C10.2508 13.2139 11.3095 13.1592 12.3114 12.8606C13.3133 12.562 14.2294 12.0281 14.9834 11.3033C15.7374 10.5786 16.3075 9.68409 16.6462 8.69422C16.9848 7.70436 17.0823 6.64784 16.9304 5.61266C16.7785 4.57747 16.3816 3.59361 15.7729 2.743C15.1642 1.8924 14.3612 1.19968 13.4308 0.722553C12.5004 0.245427 11.4696 -0.00229726 10.4242 1.60539e-05ZM10.4242 11.492C9.45095 11.492 8.49953 11.2032 7.69028 10.662C6.88104 10.1208 6.25031 9.35161 5.87785 8.45166C5.5054 7.55171 5.40795 6.56142 5.59782 5.60604C5.7877 4.65065 6.25637 3.77307 6.94458 3.08428C7.63279 2.39548 8.50962 1.92641 9.46419 1.73637C10.4188 1.54633 11.4082 1.64387 12.3074 2.01664C13.2066 2.38941 13.9751 3.02068 14.5158 3.83062C15.0566 4.64056 15.3452 5.59278 15.3452 6.56689C15.3452 7.87312 14.8267 9.12585 13.9039 10.0495C12.981 10.9731 11.7293 11.492 10.4242 11.492Z" fill="white"/>
</svg>
