<svg width="14" height="16" viewBox="0 0 14 16" fill="none" xmlns="http://www.w3.org/2000/svg">
<path d="M9.48069 13.5218C9.72245 13.5218 9.91823 13.326 9.91823 13.0843V5.64262C9.91823 5.40086 9.72245 5.20508 9.48069 5.20508C9.23894 5.20508 9.04315 5.40086 9.04315 5.64262V13.0843C9.04315 13.326 9.23894 13.5218 9.48069 13.5218Z" fill="#80A4DE"/>
<path d="M6.99989 13.5218C7.24164 13.5218 7.43743 13.326 7.43743 13.0843V5.64262C7.43743 5.40086 7.24164 5.20508 6.99989 5.20508C6.75813 5.20508 6.56235 5.40086 6.56235 5.64262V13.0843C6.56235 13.326 6.75813 13.5218 6.99989 13.5218Z" fill="#80A4DE"/>
<path d="M4.51957 13.5218C4.76133 13.5218 4.95711 13.326 4.95711 13.0843V5.64262C4.95711 5.40086 4.76133 5.20508 4.51957 5.20508C4.27782 5.20508 4.08203 5.40086 4.08203 5.64262V13.0843C4.08203 13.326 4.27758 13.5218 4.51957 13.5218Z" fill="#80A4DE"/>
<path d="M8.24041 0.242188H5.75985C4.83483 0.242188 4.0818 0.93945 4.0818 1.79586V2.72228H0.798501C0.556746 2.72228 0.360962 2.91806 0.360962 3.15982C0.360962 3.40157 0.556746 3.59736 0.798501 3.59736H1.60147V14.3223C1.60147 15.2478 2.35404 16.0006 3.27906 16.0006H10.7207C11.6462 16.0006 12.399 15.2478 12.399 14.3223V3.59736H13.2015C13.4433 3.59736 13.6391 3.40157 13.6391 3.15982C13.6391 2.91806 13.4433 2.72228 13.2015 2.72228H9.91822V1.79586C9.91822 0.93945 9.16542 0.242188 8.24041 0.242188ZM4.95711 1.79586C4.95711 1.42833 5.32464 1.11727 5.76008 1.11727H8.24041C8.67585 1.11727 9.04338 1.42833 9.04338 1.79586V2.72228H4.95711V1.79586ZM11.5239 14.3223C11.5239 14.765 11.1634 15.1255 10.7207 15.1255H3.27906C2.83639 15.1255 2.47655 14.765 2.47655 14.3223V3.59736H11.5239V14.3223Z" fill="#80A4DE"/>
</svg>
