<svg width="21" height="19" viewBox="0 0 21 19" fill="none" xmlns="http://www.w3.org/2000/svg">
    <path d="M14.8512 0C13.0755 0 11.4289 0.822098 10.3313 2.20322C9.23355 0.822098 7.58701 0 5.81133 0C2.6151 0 0 2.6636 0 5.91911C0 12.1342 9.58869 18.0862 10.0084 18.3163C10.1053 18.3821 10.2344 18.415 10.3313 18.415C10.4281 18.415 10.5572 18.3821 10.6541 18.3163C11.0738 18.0862 20.6625 12.1342 20.6625 5.91911C20.6625 2.6636 18.0474 0 14.8512 0ZM10.3313 16.9681C8.65242 15.8829 1.29141 10.7859 1.29141 5.91911C1.29141 3.38704 3.32537 1.31536 5.81133 1.31536C7.45787 1.31536 8.97527 2.23611 9.7824 3.683C10.0084 4.11049 10.6864 4.11049 10.9124 3.683C11.6872 2.23611 13.2046 1.31536 14.8512 1.31536C17.3371 1.31536 19.3711 3.38704 19.3711 5.91911C19.3711 10.7859 12.0101 15.8829 10.3313 16.9681Z"
          fill="#F2D827"/>
</svg>
