<svg id="Слой_1" data-name="Слой 1" xmlns="http://www.w3.org/2000/svg" viewBox="0 0 20.66 18.42"><defs><style>.cls-1{fill:#f2d827;}.cls-2{fill:none;}</style></defs><path class="cls-1" d="M15,.29A5.74,5.74,0,0,0,10.5,2.5,5.74,5.74,0,0,0,6,.29,5.88,5.88,0,0,0,.17,6.21c0,6.22,9.59,12.17,10,12.4a.56.56,0,0,0,.64,0c.42-.23,10-6.18,10-12.4A5.88,5.88,0,0,0,15,.29Zm-4.52,17c-1.68-1.08-9-6.18-9-11A4.57,4.57,0,0,1,6,1.61,4.57,4.57,0,0,1,10,4a.66.66,0,0,0,1.13,0A4.48,4.48,0,0,1,15,1.61a4.57,4.57,0,0,1,4.52,4.6C19.54,11.08,12.18,16.18,10.5,17.26Z" transform="translate(-0.17 -0.29)"/><line class="cls-2" x1="8.51" y1="1.5" x2="5.8" y2="0.74"/><line class="cls-2" x1="4.75" y1="0.79" x2="3.6" y2="1.5"/><path class="cls-1" d="M6.32,1.15a4.51,4.51,0,0,0-3.66.76A4.7,4.7,0,0,0,1.18,4.37,14,14,0,0,0,.83,7.26a4,4,0,0,0,0,1,4,4,0,0,0,.7,1.36l1.92,2.79a3.75,3.75,0,0,0,.38.49,3.62,3.62,0,0,0,.59.44l1.31.84a5.32,5.32,0,0,1,1.28,1,9.08,9.08,0,0,0,.76,1,5.9,5.9,0,0,0,1.43.8,4.87,4.87,0,0,0,1.11.52,2.33,2.33,0,0,0,1.52-.28c1.87-.94,2.88-3,4.46-4.36a9,9,0,0,0,2.39-2.28,6,6,0,0,0,.37-1l.58-1.89c.39-1.26.78-2.67.19-3.84a3.89,3.89,0,0,0-1.19-1.33A8,8,0,0,0,13.87,1a3.12,3.12,0,0,0-1.45.3,10,10,0,0,0-1.23,1,1.56,1.56,0,0,1-1.25.38A5.49,5.49,0,0,1,9,2.17,8.94,8.94,0,0,0,6.32,1.15Z" transform="translate(-0.17 -0.29)"/></svg>