<svg width="28" height="20" viewBox="0 0 28 20" fill="none" xmlns="http://www.w3.org/2000/svg">
    <rect x="0.5" y="7.5" width="5" height="5" rx="0.5" stroke="#80A4DE"/>
    <rect x="0.5" y="14.5" width="5" height="5" rx="0.5" stroke="#80A4DE"/>
    <rect x="0.5" y="0.5" width="5" height="5" rx="0.5" stroke="#80A4DE"/>
    <rect x="7.5" y="7.5" width="5" height="5" rx="0.5" stroke="#80A4DE"/>
    <rect x="7.5" y="14.5" width="5" height="5" rx="0.5" stroke="#80A4DE"/>
    <rect x="14.5" y="7.5" width="5" height="5" rx="0.5" stroke="#80A4DE"/>
    <rect x="14.5" y="14.5" width="5" height="5" rx="0.5" stroke="#80A4DE"/>
    <rect x="22.5" y="7.5" width="5" height="5" rx="0.5" stroke="#80A4DE"/>
    <rect x="22.5" y="14.5" width="5" height="5" rx="0.5" stroke="#80A4DE"/>
    <rect x="7.5" y="0.5" width="5" height="5" rx="0.5" stroke="#80A4DE"/>
    <rect x="14.5" y="0.5" width="5" height="5" rx="0.5" stroke="#80A4DE"/>
    <rect x="22.5" y="0.5" width="5" height="5" rx="0.5" stroke="#80A4DE"/>
</svg>
